<svg width="390" height="633" viewBox="0 0 390 633" fill="none" xmlns="http://www.w3.org/2000/svg">
<g clip-path="url(#clip0_244_326)">
<path d="M313.842 231.534C290.869 231.534 268.411 224.744 249.309 212.023C230.207 199.303 215.318 181.222 206.527 160.069C197.735 138.915 195.435 115.638 199.917 93.1819C204.399 70.7253 215.462 50.0976 231.706 33.9073C247.951 17.7171 268.649 6.69136 291.181 2.22447C313.713 -2.24241 337.069 0.0501673 358.294 8.81229C379.519 17.5744 397.66 32.4125 410.424 51.4503C423.187 70.488 430 92.8704 430 115.767C429.965 146.46 417.716 175.885 395.94 197.588C374.164 219.291 344.639 231.499 313.842 231.534ZM313.842 1.71512C291.209 1.71512 269.084 8.40413 250.265 20.9363C231.446 33.4685 216.778 51.2809 208.117 72.1211C199.455 92.9614 197.189 115.893 201.604 138.017C206.02 160.141 216.919 180.463 232.923 196.414C248.928 212.364 269.318 223.226 291.517 227.627C313.715 232.028 336.725 229.769 357.635 221.137C378.546 212.505 396.419 197.886 408.993 179.131C421.568 160.375 428.279 138.324 428.279 115.767C428.245 85.5289 416.177 56.5392 394.724 35.1577C373.27 13.7763 344.182 1.74917 313.842 1.71512Z" fill="#3F3D56"/>
<path d="M310.401 171.506C341.289 171.506 366.328 146.551 366.328 115.767C366.328 84.9828 341.289 60.0273 310.401 60.0273C279.513 60.0273 254.473 84.9828 254.473 115.767C254.473 146.551 279.513 171.506 310.401 171.506Z" fill="#3F3D56"/>
<path d="M403.614 284.785L370.392 303.901L389.573 337.011L422.795 317.895L403.614 284.785Z" fill="#FF6584"/>
<path d="M357.33 493.41L324.107 512.527L343.288 545.637L376.511 526.521L357.33 493.41Z" fill="#E5E5E5"/>
<path d="M310.401 129.487C318.004 129.487 324.167 123.345 324.167 115.767C324.167 108.189 318.004 102.046 310.401 102.046C302.797 102.046 296.634 108.189 296.634 115.767C296.634 123.345 302.797 129.487 310.401 129.487Z" fill="#6C63FF"/>
<path d="M263.334 302.059L192.069 343.065L233.214 414.09L304.478 373.084L263.334 302.059Z" fill="#6C63FF"/>
<path d="M15.9561 348.105C14.676 346.465 13.7721 344.566 13.3081 342.541C12.8442 340.515 12.8314 338.413 13.2707 336.383C13.7101 334.352 14.5909 332.442 15.851 330.787C17.1111 329.133 18.7199 327.773 20.5642 326.805L17.5868 294.469L36.8623 287.874L40.4232 333.597C41.8496 336.792 42.0503 340.398 40.9872 343.732C39.9241 347.065 37.6712 349.893 34.6553 351.682C31.6394 353.47 28.0701 354.094 24.6237 353.434C21.1773 352.775 18.0933 350.879 15.9561 348.105Z" fill="#FFB8B8"/>
<path d="M36.6491 162.516C36.6491 162.516 49.8767 134.85 61.6304 144.582C73.3842 154.314 45.5162 236.118 45.5162 236.118L41.2776 315.53L18.9391 313.305L12.6233 235.935L36.6491 162.516Z" fill="#CCCCCC"/>
<path d="M89.6758 608.963L111.011 608.962L121.16 526.95L89.6726 526.951L89.6758 608.963Z" fill="#FFB8B8"/>
<path d="M84.2341 602.021L126.249 602.02H126.251C133.352 602.02 140.162 604.831 145.183 609.836C150.204 614.84 153.025 621.627 153.026 628.704V629.571L84.2354 629.574L84.2341 602.021Z" fill="#2F2E41"/>
<path d="M127.112 224.481C127.112 224.481 167.136 273.042 158.435 321.603C149.734 370.164 142.773 406.585 142.773 406.585L128.852 515.847C128.852 515.847 134.072 545.603 127.112 553.271C127.112 553.271 137.553 571.345 118.411 578.282C99.2688 585.219 88.9406 575.885 88.9406 575.885C88.9406 575.885 74.9064 555.736 83.6073 550.533L87.2726 336.109L-52.1261 517.581C-52.1261 517.581 -54.6885 539.655 -72.5492 539.891L-93.8903 555.736L-118.253 541.861L-106.072 526.253C-106.072 526.253 -113.032 508.909 -97.3707 505.441L-6.88173 387.507L15.7405 326.806C15.7405 326.806 27.9218 279.98 60.9851 260.902V240.602L127.112 224.481Z" fill="#2F2E41"/>
<path d="M58.3748 140.367C63.6438 134.161 71.019 130.104 79.0958 128.967C87.1726 127.83 95.3868 129.694 102.174 134.204L103.619 135.164C119.066 152.598 129.447 173.9 133.646 196.778L140.163 232.286L58.3748 249.943L39.2011 184.039C36.7674 175.674 37.3531 166.723 40.8563 158.744C44.3595 150.765 50.5585 144.262 58.3748 140.367Z" fill="#CCCCCC"/>
<path d="M192.748 355.654C190.48 354.915 188.403 353.69 186.662 352.065C184.921 350.439 183.559 348.453 182.671 346.246C181.784 344.04 181.393 341.666 181.525 339.292C181.658 336.918 182.311 334.602 183.439 332.507L159.846 303.729L173.896 285.174L206.642 326.281C210.048 328.402 212.554 331.696 213.686 335.536C214.819 339.376 214.498 343.497 212.786 347.118C211.073 350.739 208.087 353.607 204.394 355.181C200.701 356.754 196.557 356.922 192.748 355.654Z" fill="#FFB8B8"/>
<path d="M93.1782 166.382C93.1782 166.382 87.9577 131.696 105.359 133.43C122.761 135.164 148.864 230.552 148.864 230.552L195.848 308.596L173.226 320.736L117.541 251.364L93.1782 166.382Z" fill="#CCCCCC"/>
<path d="M125.045 115.672H42.179C40.4745 115.67 38.8402 114.994 37.6349 113.793C36.4296 112.592 35.7517 110.963 35.7498 109.264V73.6664C35.7498 61.0153 40.7923 48.8824 49.7682 39.9367C58.7441 30.991 70.9181 25.9653 83.6119 25.9653C96.3057 25.9653 108.48 30.991 117.456 39.9367C126.431 48.8824 131.474 61.0153 131.474 73.6664V109.264C131.472 110.963 130.794 112.592 129.589 113.793C128.384 114.994 126.749 115.67 125.045 115.672Z" fill="#2F2E41"/>
<path d="M124.238 96.6457C133.534 79.6977 127.284 58.4483 110.279 49.1837C93.2735 39.9191 71.9523 46.1477 62.6564 63.0957C53.3605 80.0436 59.6101 101.293 76.6153 110.558C93.6205 119.822 114.942 113.594 124.238 96.6457Z" fill="#FFB8B8"/>
<path d="M142.797 77.2264H98.6357L98.1828 69.9762L95.9186 77.2264H89.1187L88.2213 62.8566L83.7336 77.2264H70.5762V76.5145C70.5762 55.7078 85.3786 38.7808 103.573 38.7808H109.8C127.994 38.7808 142.797 55.7078 142.797 76.5145L142.797 77.2264Z" fill="#2F2E41"/>
<path d="M100.464 122.317C99.9238 122.317 99.385 122.275 98.8516 122.193L46.2881 114.124V59.5602C46.2881 56.8002 46.8335 54.0673 47.8933 51.5174C48.9531 48.9676 50.5064 46.6507 52.4645 44.6991C54.4227 42.7475 56.7474 41.1994 59.3059 40.1433C61.8644 39.0871 64.6065 38.5435 67.3758 38.5435H104.15L102.718 39.9966C82.7867 60.2203 97.8025 93.0134 108.527 110.761C109.314 112.036 109.67 113.53 109.542 115.022C109.413 116.515 108.808 117.926 107.814 119.05C106.901 120.095 105.771 120.929 104.501 121.493C103.231 122.057 101.854 122.339 100.464 122.317Z" fill="#2F2E41"/>
</g>
<defs>
<clipPath id="clip0_244_326">
<rect width="770" height="633" fill="white" transform="translate(-340)"/>
</clipPath>
</defs>
</svg>
